<svg width="50" height="50" viewBox="0 0 50 50" fill="none" xmlns="http://www.w3.org/2000/svg">
<path d="M20 5C17.3478 5 14.8043 6.05357 12.9289 7.92893C11.0536 9.8043 10 12.3478 10 15C10 17.6522 11.0536 20.1957 12.9289 22.0711C14.8043 23.9464 17.3478 25 20 25C22.6522 25 25.1957 23.9464 27.0711 22.0711C28.9464 20.1957 30 17.6522 30 15C30 12.3478 28.9464 9.8043 27.0711 7.92893C25.1957 6.05357 22.6522 5 20 5ZM5 15C5 11.0218 6.58035 7.20644 9.3934 4.3934C12.2064 1.58035 16.0218 0 20 0C23.9782 0 27.7936 1.58035 30.6066 4.3934C33.4196 7.20644 35 11.0218 35 15C35 18.9782 33.4196 22.7936 30.6066 25.6066C27.7936 28.4196 23.9782 30 20 30C16.0218 30 12.2064 28.4196 9.3934 25.6066C6.58035 22.7936 5 18.9782 5 15ZM42.5 22.5C43.163 22.5 43.7989 22.7634 44.2678 23.2322C44.7366 23.7011 45 24.337 45 25V27.5H47.5C48.163 27.5 48.7989 27.7634 49.2678 28.2322C49.7366 28.7011 50 29.337 50 30C50 30.663 49.7366 31.2989 49.2678 31.7678C48.7989 32.2366 48.163 32.5 47.5 32.5H45V35C45 35.663 44.7366 36.2989 44.2678 36.7678C43.7989 37.2366 43.163 37.5 42.5 37.5C41.837 37.5 41.2011 37.2366 40.7322 36.7678C40.2634 36.2989 40 35.663 40 35V32.5H37.5C36.837 32.5 36.2011 32.2366 35.7322 31.7678C35.2634 31.2989 35 30.663 35 30C35 29.337 35.2634 28.7011 35.7322 28.2322C36.2011 27.7634 36.837 27.5 37.5 27.5H40V25C40 24.337 40.2634 23.7011 40.7322 23.2322C41.2011 22.7634 41.837 22.5 42.5 22.5ZM11.25 40C8.1 40 5 43.0325 5 47.5C5 48.163 4.73661 48.7989 4.26777 49.2678C3.79893 49.7366 3.16304 50 2.5 50C1.83696 50 1.20107 49.7366 0.732233 49.2678C0.263392 48.7989 0 48.163 0 47.5C0 40.92 4.7325 35 11.25 35H28.75C35.2675 35 40 40.92 40 47.5C40 48.163 39.7366 48.7989 39.2678 49.2678C38.7989 49.7366 38.163 50 37.5 50C36.837 50 36.2011 49.7366 35.7322 49.2678C35.2634 48.7989 35 48.163 35 47.5C35 43.0325 31.9 40 28.75 40H11.25Z" fill="#AF125A"/>
</svg>
