<svg width="36" height="36" viewBox="0 0 36 36" fill="none" xmlns="http://www.w3.org/2000/svg">
<path d="M0.752231 0.784351C1.23403 0.302698 1.8874 0.0321198 2.56866 0.0321198C3.24993 0.0321198 3.9033 0.302698 4.3851 0.784351L17.9839 14.3832L31.5828 0.784351C31.8198 0.538965 32.1033 0.343236 32.4167 0.208586C32.7302 0.0739364 33.0673 0.0030614 33.4085 9.70059e-05C33.7496 -0.00286739 34.0879 0.0621375 34.4037 0.19132C34.7194 0.320502 35.0063 0.511274 35.2475 0.752504C35.4887 0.993734 35.6795 1.28059 35.8087 1.59634C35.9379 1.91209 36.0029 2.2504 35.9999 2.59154C35.9969 2.93268 35.9261 3.26981 35.7914 3.58326C35.6568 3.89671 35.461 4.18021 35.2156 4.41722L21.6168 18.0161L35.2156 31.6149C35.6837 32.0994 35.9426 32.7484 35.9368 33.4221C35.9309 34.0957 35.6607 34.7401 35.1843 35.2165C34.708 35.6928 34.0636 35.963 33.39 35.9689C32.7163 35.9747 32.0673 35.7158 31.5828 35.2478L17.9839 21.6489L4.3851 35.2478C3.90054 35.7158 3.25155 35.9747 2.57791 35.9689C1.90427 35.963 1.25988 35.6928 0.783527 35.2165C0.307174 34.7401 0.0369724 34.0957 0.0311187 33.4221C0.0252649 32.7484 0.284228 32.0994 0.752231 31.6149L14.3511 18.0161L0.752231 4.41722C0.270578 3.93542 0 3.28205 0 2.60078C0 1.91952 0.270578 1.26615 0.752231 0.784351Z" fill="#AF125A"/>
</svg>
