<svg width="41" height="32" viewBox="0 0 41 32" fill="none" xmlns="http://www.w3.org/2000/svg">
<path d="M40.2355 0.577556C40.687 0.980276 40.9606 1.54618 40.9961 2.15093C41.0316 2.75569 40.8261 3.34983 40.4248 3.80284L16.0992 31.2326C15.8853 31.4739 15.6227 31.6671 15.3289 31.7993C15.035 31.9316 14.7166 32 14.3944 32C14.0723 32 13.7538 31.9316 13.46 31.7993C13.1662 31.6671 12.9036 31.4739 12.6896 31.2326L0.526873 17.5177C0.148553 17.0616 -0.038055 16.4759 0.00646804 15.8845C0.0509911 15.293 0.323159 14.7421 0.765477 14.348C1.20779 13.954 1.78562 13.7477 2.3769 13.7727C2.96817 13.7977 3.52659 14.0521 3.93418 14.4821L14.3933 26.2746L37.0174 0.764993C37.4196 0.312758 37.9844 0.0389985 38.5878 0.00385373C39.1911 -0.0312911 39.7838 0.175052 40.2355 0.577556Z" fill="#AF125A"/>
</svg>
