<svg width="51" height="48" viewBox="0 0 51 48" fill="none" xmlns="http://www.w3.org/2000/svg">
<path d="M23.8026 0.637332C24.2704 0.22676 24.8743 0 25.5 0C26.1257 0 26.7296 0.22676 27.1974 0.637332L50.2043 20.8486C50.6852 21.3002 50.9697 21.9187 50.9977 22.5737C51.0257 23.2287 50.795 23.8688 50.3543 24.3588C49.9136 24.8488 49.2974 25.1503 48.636 25.1996C47.9745 25.2489 47.3196 25.0422 46.8095 24.6231L45.9506 23.8728V42.9472C45.9506 44.2873 45.4119 45.5725 44.4531 46.5201C43.4943 47.4677 42.1939 48 40.8379 48H10.1621C8.80611 48 7.50569 47.4677 6.54688 46.5201C5.58807 45.5725 5.04942 44.2873 5.04942 42.9472V23.8728L4.1905 24.6231C3.68041 25.0422 3.02546 25.2489 2.364 25.1996C1.70255 25.1503 1.0864 24.8488 0.645706 24.3588C0.205012 23.8688 -0.0257104 23.2287 0.00227882 22.5737C0.030268 21.9187 0.314777 21.3002 0.795703 20.8486L23.8026 0.637332ZM10.1621 19.3757V42.9472H17.831V30.3151C17.831 29.6451 18.1004 29.0025 18.5798 28.5287C19.0592 28.0549 19.7094 27.7887 20.3874 27.7887H30.6126C31.2906 27.7887 31.9408 28.0549 32.4202 28.5287C32.8996 29.0025 33.169 29.6451 33.169 30.3151V42.9472H40.8379V19.3783L25.5 5.9049L10.1621 19.3783V19.3757ZM28.0563 42.9472V32.8415H22.9437V42.9472H28.0563Z" fill="#AF125A"/>
</svg>
