<svg width="40" height="50" viewBox="0 0 40 50" fill="none" xmlns="http://www.w3.org/2000/svg">
<path d="M10 2.5C10 1.83696 10.2634 1.20107 10.7322 0.732233C11.2011 0.263392 11.837 0 12.5 0H27.5C28.163 0 28.7989 0.263392 29.2678 0.732233C29.7366 1.20107 30 1.83696 30 2.5H35C36.3261 2.5 37.5979 3.02678 38.5355 3.96447C39.4732 4.90215 40 6.17392 40 7.5V45C40 46.3261 39.4732 47.5979 38.5355 48.5355C37.5979 49.4732 36.3261 50 35 50H5C3.67392 50 2.40215 49.4732 1.46447 48.5355C0.526784 47.5979 0 46.3261 0 45V7.5C0 6.17392 0.526784 4.90215 1.46447 3.96447C2.40215 3.02678 3.67392 2.5 5 2.5H10ZM10 7.5H5V45H35V7.5H30V10C30 10.663 29.7366 11.2989 29.2678 11.7678C28.7989 12.2366 28.163 12.5 27.5 12.5H12.5C11.837 12.5 11.2011 12.2366 10.7322 11.7678C10.2634 11.2989 10 10.663 10 10V7.5ZM25 5H15V7.5H25V5ZM29.2675 21.9825C29.7362 22.4513 29.9995 23.0871 29.9995 23.75C29.9995 24.4129 29.7362 25.0487 29.2675 25.5175L19.2675 35.5175C18.7987 35.9862 18.1629 36.2495 17.5 36.2495C16.8371 36.2495 16.2013 35.9862 15.7325 35.5175L10.7325 30.5175C10.4937 30.2869 10.3033 30.011 10.1722 29.706C10.0412 29.401 9.97226 29.0729 9.96937 28.741C9.96649 28.4091 10.0297 28.0799 10.1554 27.7726C10.2811 27.4654 10.4668 27.1862 10.7015 26.9515C10.9362 26.7168 11.2154 26.5311 11.5226 26.4054C11.8299 26.2797 12.1591 26.2165 12.491 26.2194C12.823 26.2223 13.151 26.2912 13.456 26.4222C13.761 26.5533 14.0369 26.7437 14.2675 26.9825L17.5 30.215L25.7325 21.9825C26.2013 21.5138 26.8371 21.2505 27.5 21.2505C28.1629 21.2505 28.7987 21.5138 29.2675 21.9825Z" fill="#AF125A"/>
</svg>
