<svg width="55" height="72" viewBox="0 0 55 72" fill="none" xmlns="http://www.w3.org/2000/svg">
<path d="M17.1875 33.9625C18.0992 33.9625 18.9735 33.5858 19.6182 32.9154C20.2628 32.245 20.625 31.3356 20.625 30.3875C20.625 29.4394 20.2628 28.53 19.6182 27.8596C18.9735 27.1892 18.0992 26.8125 17.1875 26.8125C16.2758 26.8125 15.4015 27.1892 14.7568 27.8596C14.1122 28.53 13.75 29.4394 13.75 30.3875C13.75 31.3356 14.1122 32.245 14.7568 32.9154C15.4015 33.5858 16.2758 33.9625 17.1875 33.9625ZM24.0625 30.3875C24.0625 29.4394 24.4247 28.53 25.0693 27.8596C25.714 27.1892 26.5883 26.8125 27.5 26.8125H37.8125C38.7242 26.8125 39.5985 27.1892 40.2432 27.8596C40.8878 28.53 41.25 29.4394 41.25 30.3875C41.25 31.3356 40.8878 32.245 40.2432 32.9154C39.5985 33.5858 38.7242 33.9625 37.8125 33.9625H27.5C26.5883 33.9625 25.714 33.5858 25.0693 32.9154C24.4247 32.245 24.0625 31.3356 24.0625 30.3875ZM27.5 37.5375C26.5883 37.5375 25.714 37.9142 25.0693 38.5846C24.4247 39.255 24.0625 40.1644 24.0625 41.1125C24.0625 42.0606 24.4247 42.97 25.0693 43.6404C25.714 44.3108 26.5883 44.6875 27.5 44.6875H37.8125C38.7242 44.6875 39.5985 44.3108 40.2432 43.6404C40.8878 42.97 41.25 42.0606 41.25 41.1125C41.25 40.1644 40.8878 39.255 40.2432 38.5846C39.5985 37.9142 38.7242 37.5375 37.8125 37.5375H27.5ZM27.5 48.2625C26.5883 48.2625 25.714 48.6392 25.0693 49.3096C24.4247 49.98 24.0625 50.8893 24.0625 51.8375C24.0625 52.7856 24.4247 53.695 25.0693 54.3654C25.714 55.0359 26.5883 55.4125 27.5 55.4125H37.8125C38.7242 55.4125 39.5985 55.0359 40.2432 54.3654C40.8878 53.695 41.25 52.7856 41.25 51.8375C41.25 50.8893 40.8878 49.98 40.2432 49.3096C39.5985 48.6392 38.7242 48.2625 37.8125 48.2625H27.5ZM20.625 41.1125C20.625 42.0606 20.2628 42.97 19.6182 43.6404C18.9735 44.3108 18.0992 44.6875 17.1875 44.6875C16.2758 44.6875 15.4015 44.3108 14.7568 43.6404C14.1122 42.97 13.75 42.0606 13.75 41.1125C13.75 40.1644 14.1122 39.255 14.7568 38.5846C15.4015 37.9142 16.2758 37.5375 17.1875 37.5375C18.0992 37.5375 18.9735 37.9142 19.6182 38.5846C20.2628 39.255 20.625 40.1644 20.625 41.1125ZM17.1875 55.4125C18.0992 55.4125 18.9735 55.0359 19.6182 54.3654C20.2628 53.695 20.625 52.7856 20.625 51.8375C20.625 50.8893 20.2628 49.98 19.6182 49.3096C18.9735 48.6392 18.0992 48.2625 17.1875 48.2625C16.2758 48.2625 15.4015 48.6392 14.7568 49.3096C14.1122 49.98 13.75 50.8893 13.75 51.8375C13.75 52.7856 14.1122 53.695 14.7568 54.3654C15.4015 55.0359 16.2758 55.4125 17.1875 55.4125Z" fill="#AF125A"/>
<path d="M17.1875 0C16.2758 0 15.4015 0.376651 14.7568 1.04709C14.1122 1.71754 13.75 2.62685 13.75 3.575H6.875C5.05164 3.575 3.30295 4.3283 2.01364 5.66919C0.724328 7.01007 0 8.8287 0 10.725V64.35C0 66.2463 0.724328 68.0649 2.01364 69.4058C3.30295 70.7467 5.05164 71.5 6.875 71.5H48.125C49.9484 71.5 51.697 70.7467 52.9864 69.4058C54.2757 68.0649 55 66.2463 55 64.35V10.725C55 8.8287 54.2757 7.01007 52.9864 5.66919C51.697 4.3283 49.9484 3.575 48.125 3.575H41.25C41.25 2.62685 40.8878 1.71754 40.2432 1.04709C39.5985 0.376651 38.7242 0 37.8125 0H17.1875ZM41.25 10.725H48.125V64.35H6.875V10.725H13.75V14.3C13.75 15.2481 14.1122 16.1575 14.7568 16.8279C15.4015 17.4983 16.2758 17.875 17.1875 17.875H37.8125C38.7242 17.875 39.5985 17.4983 40.2432 16.8279C40.8878 16.1575 41.25 15.2481 41.25 14.3V10.725ZM20.625 10.725V7.15H34.375V10.725H20.625Z" fill="#AF125A"/>
</svg>
