<svg width="44" height="44" viewBox="0 0 44 44" fill="none" xmlns="http://www.w3.org/2000/svg">
<path d="M22 0C22.7293 0 23.4288 0.289732 23.9445 0.805457C24.4603 1.32118 24.75 2.02065 24.75 2.75V19.25H41.25C41.9793 19.25 42.6788 19.5397 43.1945 20.0555C43.7103 20.5712 44 21.2707 44 22C44 22.7293 43.7103 23.4288 43.1945 23.9445C42.6788 24.4603 41.9793 24.75 41.25 24.75H24.75V41.25C24.75 41.9793 24.4603 42.6788 23.9445 43.1945C23.4288 43.7103 22.7293 44 22 44C21.2707 44 20.5712 43.7103 20.0555 43.1945C19.5397 42.6788 19.25 41.9793 19.25 41.25V24.75H2.75C2.02065 24.75 1.32118 24.4603 0.805457 23.9445C0.289732 23.4288 0 22.7293 0 22C0 21.2707 0.289732 20.5712 0.805457 20.0555C1.32118 19.5397 2.02065 19.25 2.75 19.25H19.25V2.75C19.25 2.02065 19.5397 1.32118 20.0555 0.805457C20.5712 0.289732 21.2707 0 22 0Z" fill="#AF125A"/>
</svg>
